<svg width="100" height="35" fill="none" xmlns="http://www.w3.org/2000/svg"><g clip-path="url(#clip0)"><path d="M9.733 8.749c.166.048 1.003.285 1.702.39v-3.34c0-2.337 1.895-4.25 4.21-4.25h7.863v.298C21.803 9.88 18.65 17.01 9.732 8.75zm1.289 15.619h-5.91c-2.315 0-4.21-1.913-4.21-4.25v-7.936h10.442c1.807 4.287 1.72 8.571-.322 12.186z" fill="#009246"/><path d="M34.04 16.432v7.936H23.509v6.382c0 2.337-1.895 4.25-4.21 4.25h-7.863v-5.178c-1.878.759-4.149 1.12-5.33 1.144 9.158-3.14 15.626-11.414 17.403-21.927v3.143h6.322c2.316 0 4.21 1.912 4.21 4.25z" fill="#CE2B37"/><path d="M23.875 0C25.256 17.078 15.12 30.968 0 32.238c13.087-3.986 15.849-14.624 9.012-24.176C19.188 18.084 22.21 8.917 23.875 0zm-7.963 6.436a2.526 2.526 0 013.468.938 2.576 2.576 0 01-.929 3.5 2.526 2.526 0 01-3.468-.938 2.576 2.576 0 01.929-3.5z" fill="#F1F2F1"/><path d="M38.92 7.65h2.752l2.276 4.46 2.222-4.46h2.752v9.187H46.17v-4.9l-1.68 3.205h-1.124l-1.694-3.205v4.9h-2.751V7.65zm12.946 8.847a3.331 3.331 0 01-1.33-1.229 3.33 3.33 0 01-.476-1.769c0-.676.163-1.277.49-1.803a3.3 3.3 0 011.323-1.215 4 4 0 011.852-.427c.652 0 1.21.145 1.673.434.463.29.81.68 1.039 1.175.229.494.344 1.048.344 1.662 0 .16-.01.276-.027.348l-3.968.52c.105.312.277.537.515.675s.552.207.94.207c.6 0 1.248-.156 1.944-.468l.331 1.79c-.82.365-1.72.547-2.699.547-.732 0-1.382-.149-1.95-.447zm2.864-3.986c-.141-.561-.476-.842-1.005-.842a.901.901 0 00-.754.361c-.185.24-.282.552-.291.935l2.05-.454zm4.28 3.953a3.42 3.42 0 01-1.158-1.276 3.536 3.536 0 01-.423-1.689c0-.632.148-1.213.443-1.742.295-.53.692-.947 1.19-1.25a3.02 3.02 0 011.595-.453c.511 0 .946.107 1.303.32.357.214.646.557.867 1.029V8.037l2.79-.414v9.215h-2.79v-1.242c-.415.899-1.143 1.349-2.183 1.349-.6 0-1.145-.16-1.634-.481zm3.44-2.03a1.32 1.32 0 00.377-.935v-.053a1.21 1.21 0 00-.397-.902 1.28 1.28 0 00-.913-.38c-.37 0-.681.131-.933.394a1.314 1.314 0 00-.377.941c0 .374.13.69.39.948.26.259.567.388.92.388.37 0 .681-.134.933-.401zm4.842-5.682a1.262 1.262 0 01-.43-.969c0-.382.15-.703.45-.961.3-.258.644-.387 1.032-.387.405 0 .756.133 1.051.4.296.267.444.583.444.948 0 .392-.15.717-.45.975-.3.259-.648.387-1.045.387-.415 0-.766-.13-1.052-.393zm.271 7.471c-.415-.48-.622-1.135-.622-1.963v-4.113h2.805v3.993c0 .205.055.363.165.474.11.111.254.167.43.167s.357-.054.543-.16l.145 1.856a2.055 2.055 0 01-.76.347c-.314.08-.638.12-.973.12-.741 0-1.319-.24-1.733-.72zm5.629.287a3.152 3.152 0 01-1.27-1.221c-.304-.526-.457-1.122-.457-1.79 0-.64.16-1.224.477-1.75.317-.524.75-.939 1.296-1.241a3.707 3.707 0 011.826-.454c.855 0 1.53.178 2.024.534l-.252 1.776c-.502-.151-.917-.227-1.243-.227-.423 0-.759.123-1.005.367-.247.245-.37.577-.37.995 0 .419.123.753.37 1.002.246.25.573.374.979.374.352 0 .767-.076 1.243-.227l.251 1.87c-.3.15-.604.26-.913.326-.308.067-.67.1-1.084.1-.706 0-1.33-.144-1.872-.433zm5.173-7.758a1.262 1.262 0 01-.43-.969c0-.382.15-.703.45-.961.3-.258.643-.387 1.031-.387.406 0 .756.133 1.052.4.295.267.443.583.443.948 0 .392-.15.717-.45.975-.3.259-.648.387-1.044.387-.415 0-.766-.13-1.052-.393zm.27 7.471c-.414-.48-.621-1.135-.621-1.963v-4.113h2.804v3.993c0 .205.055.363.166.474.11.111.253.167.43.167.176 0 .357-.054.542-.16l.145 1.856a2.055 2.055 0 01-.76.347c-.314.08-.638.12-.973.12-.74 0-1.318-.24-1.733-.72zm4.234-5.983h2.659v1.363c.511-1.033 1.323-1.55 2.434-1.55.847 0 1.51.306 1.991.915.481.61.721 1.454.721 2.53v3.34h-2.778v-3.62c0-.382-.082-.676-.245-.88-.163-.206-.39-.308-.68-.308-.213 0-.42.07-.623.207a1.505 1.505 0 00-.496.594 1.96 1.96 0 00-.192.882v3.124h-2.79v-6.596zm10.405 6.244a3.43 3.43 0 01-1.198-1.256c-.3-.53-.45-1.12-.45-1.769 0-.64.15-1.222.45-1.743a3.3 3.3 0 011.204-1.222 3.123 3.123 0 011.601-.44c.459 0 .884.129 1.277.387.392.258.69.645.893 1.162v-1.55h2.778v6.784h-2.778v-1.242c-.441.9-1.164 1.35-2.17 1.35-.573 0-1.11-.154-1.607-.461zm3.373-2.03c.252-.254.386-.555.404-.902v-.106a1.305 1.305 0 00-.417-.908 1.255 1.255 0 00-.893-.374c-.37 0-.686.131-.946.394a1.29 1.29 0 00-.39.941c0 .374.132.69.397.948.264.259.577.388.939.388.353 0 .655-.127.906-.381zM38.92 20.241h3.057v9.188h-3.056V20.24zm6.192 2.03H43.22v-2.03h6.866v2.03h-1.892v7.158h-3.082V22.27zm7.263-2.03h4.022l2.633 9.188h-3.11l-.344-1.763h-2.354l-.384 1.763H49.86l2.514-9.188zm2.884 5.782l-.86-4.02-.9 4.02h1.76zm4.644-5.782h2.858V27.4h3.161v2.03h-6.02v-9.19zm7.117 0h3.056v9.188H67.02V20.24zm6.496 0h4.021l2.633 9.188h-3.11l-.343-1.763h-2.355l-.384 1.763h-2.976l2.514-9.188zm2.884 5.782l-.86-4.02-.9 4.02h1.76z" fill="#71CEFB"/></g><defs><clipPath id="clip0"><path fill="#fff" d="M0 0h100v35H0z"/></clipPath></defs></svg>